<svg width="538" height="133" viewBox="0 0 538 133" fill="none" xmlns="http://www.w3.org/2000/svg">
<path d="M410.627 77.288C408.856 77.288 407.256 77.064 405.827 76.616C404.398 76.1467 403.16 75.4747 402.115 74.6L403.043 72.488C404.131 73.32 405.272 73.9387 406.467 74.344C407.662 74.7493 409.048 74.952 410.627 74.952C412.547 74.952 413.966 74.6 414.883 73.896C415.822 73.1707 416.291 72.2213 416.291 71.048C416.291 70.1093 415.95 69.3627 415.267 68.808C414.606 68.2533 413.486 67.816 411.907 67.496L408.579 66.824C406.574 66.3973 405.07 65.704 404.067 64.744C403.086 63.7627 402.595 62.4613 402.595 60.84C402.595 59.496 402.936 58.3227 403.619 57.32C404.323 56.3173 405.294 55.5387 406.531 54.984C407.768 54.4293 409.198 54.152 410.819 54.152C412.334 54.152 413.742 54.3973 415.043 54.888C416.344 55.3573 417.443 56.04 418.339 56.936L417.411 58.984C416.451 58.1093 415.438 57.48 414.371 57.096C413.304 56.6907 412.11 56.488 410.787 56.488C409.102 56.488 407.758 56.8827 406.755 57.672C405.752 58.44 405.251 59.464 405.251 60.744C405.251 61.768 405.56 62.5787 406.179 63.176C406.819 63.7733 407.854 64.2107 409.283 64.488L412.611 65.192C414.766 65.64 416.355 66.3227 417.379 67.24C418.424 68.136 418.947 69.3627 418.947 70.92C418.947 72.1787 418.606 73.288 417.923 74.248C417.262 75.208 416.302 75.9547 415.043 76.488C413.806 77.0213 412.334 77.288 410.627 77.288ZM429.674 77.288C427.221 77.288 425.28 76.5733 423.85 75.144C422.421 73.6933 421.706 71.7307 421.706 69.256C421.706 67.656 422.026 66.248 422.666 65.032C423.306 63.7947 424.181 62.8453 425.29 62.184C426.421 61.5013 427.722 61.16 429.194 61.16C431.306 61.16 432.96 61.8427 434.154 63.208C435.349 64.552 435.946 66.408 435.946 68.776V69.768H424.234C424.32 71.5387 424.832 72.8933 425.77 73.832C426.709 74.7493 428.01 75.208 429.674 75.208C430.613 75.208 431.509 75.0693 432.362 74.792C433.216 74.4933 434.026 74.0133 434.794 73.352L435.69 75.176C434.986 75.8373 434.09 76.36 433.002 76.744C431.914 77.1067 430.805 77.288 429.674 77.288ZM429.258 63.08C427.786 63.08 426.624 63.5387 425.77 64.456C424.917 65.3733 424.416 66.5787 424.266 68.072H433.706C433.642 66.4933 433.226 65.2667 432.458 64.392C431.712 63.5173 430.645 63.08 429.258 63.08ZM439.698 77V61.448H442.226V64.232C443.058 62.3547 444.764 61.32 447.346 61.128L448.274 61.032L448.466 63.272L446.834 63.464C445.362 63.592 444.242 64.0613 443.474 64.872C442.706 65.6613 442.322 66.7493 442.322 68.136V77H439.698ZM456.711 77L450.023 61.448H452.839L457.991 74.056L463.207 61.448H465.863L459.143 77H456.711ZM475.393 77.288C472.94 77.288 470.998 76.5733 469.569 75.144C468.14 73.6933 467.425 71.7307 467.425 69.256C467.425 67.656 467.745 66.248 468.385 65.032C469.025 63.7947 469.9 62.8453 471.009 62.184C472.14 61.5013 473.441 61.16 474.913 61.16C477.025 61.16 478.678 61.8427 479.873 63.208C481.068 64.552 481.665 66.408 481.665 68.776V69.768H469.953C470.038 71.5387 470.55 72.8933 471.489 73.832C472.428 74.7493 473.729 75.208 475.393 75.208C476.332 75.208 477.228 75.0693 478.081 74.792C478.934 74.4933 479.745 74.0133 480.513 73.352L481.409 75.176C480.705 75.8373 479.809 76.36 478.721 76.744C477.633 77.1067 476.524 77.288 475.393 77.288ZM474.977 63.08C473.505 63.08 472.342 63.5387 471.489 64.456C470.636 65.3733 470.134 66.5787 469.985 68.072H479.425C479.361 66.4933 478.945 65.2667 478.177 64.392C477.43 63.5173 476.364 63.08 474.977 63.08ZM485.416 77V61.448H487.944V64.232C488.776 62.3547 490.483 61.32 493.064 61.128L493.992 61.032L494.184 63.272L492.552 63.464C491.08 63.592 489.96 64.0613 489.192 64.872C488.424 65.6613 488.04 66.7493 488.04 68.136V77H485.416Z" fill="#EEEEEE"/>
<rect x="359.5" y="2.5" width="176" height="128" rx="17.5" stroke="#343434" stroke-width="5"/>
<path d="M60.6221 77.288C58.4035 77.288 56.5048 76.8187 54.9261 75.88C53.3475 74.9413 52.1315 73.608 51.2781 71.88C50.4461 70.152 50.0301 68.0933 50.0301 65.704C50.0301 63.336 50.4461 61.288 51.2781 59.56C52.1315 57.832 53.3475 56.4987 54.9261 55.56C56.5048 54.6213 58.4035 54.152 60.6221 54.152C62.1795 54.152 63.6088 54.3973 64.9101 54.888C66.2328 55.3787 67.3528 56.0933 68.2701 57.032L67.2461 59.176C66.2648 58.2587 65.2408 57.5973 64.1741 57.192C63.1288 56.7653 61.9661 56.552 60.6861 56.552C58.1475 56.552 56.2061 57.352 54.8621 58.952C53.5181 60.552 52.8461 62.8027 52.8461 65.704C52.8461 68.6267 53.5181 70.888 54.8621 72.488C56.2061 74.088 58.1475 74.888 60.6861 74.888C61.9661 74.888 63.1288 74.6853 64.1741 74.28C65.2408 73.8533 66.2648 73.1813 67.2461 72.264L68.2701 74.408C67.3528 75.3253 66.2328 76.04 64.9101 76.552C63.6088 77.0427 62.1795 77.288 60.6221 77.288ZM76.8094 77.288C75.2307 77.288 74.036 76.8293 73.2254 75.912C72.436 74.9733 72.0414 73.6187 72.0414 71.848V54.44H74.6334V71.656C74.6334 73.9387 75.54 75.08 77.3534 75.08C77.8867 75.08 78.3667 75.016 78.7934 74.888L78.7294 77.064C78.068 77.2133 77.428 77.288 76.8094 77.288ZM81.1901 57.576V54.664H84.3901V57.576H81.1901ZM81.5101 77V61.448H84.1021V77H81.5101ZM95.9556 77.288C93.5023 77.288 91.561 76.5733 90.1316 75.144C88.7023 73.6933 87.9876 71.7307 87.9876 69.256C87.9876 67.656 88.3076 66.248 88.9476 65.032C89.5876 63.7947 90.4623 62.8453 91.5716 62.184C92.7023 61.5013 94.0036 61.16 95.4756 61.16C97.5876 61.16 99.241 61.8427 100.436 63.208C101.63 64.552 102.228 66.408 102.228 68.776V69.768H90.5156C90.601 71.5387 91.113 72.8933 92.0516 73.832C92.9903 74.7493 94.2916 75.208 95.9556 75.208C96.8943 75.208 97.7903 75.0693 98.6436 74.792C99.497 74.4933 100.308 74.0133 101.076 73.352L101.972 75.176C101.268 75.8373 100.372 76.36 99.2836 76.744C98.1956 77.1067 97.0863 77.288 95.9556 77.288ZM95.5396 63.08C94.0676 63.08 92.905 63.5387 92.0516 64.456C91.1983 65.3733 90.697 66.5787 90.5476 68.072H99.9876C99.9236 66.4933 99.5076 65.2667 98.7396 64.392C97.993 63.5173 96.9263 63.08 95.5396 63.08ZM105.979 77V61.448H108.507V64.104C109.019 63.1227 109.744 62.3867 110.683 61.896C111.622 61.4053 112.678 61.16 113.851 61.16C117.542 61.16 119.387 63.208 119.387 67.304V77H116.795V67.464C116.795 66.0133 116.507 64.9573 115.931 64.296C115.376 63.6133 114.48 63.272 113.243 63.272C111.814 63.272 110.672 63.72 109.819 64.616C108.987 65.4907 108.571 66.664 108.571 68.136V77H105.979ZM130.406 77.288C128.572 77.288 127.196 76.808 126.278 75.848C125.361 74.8667 124.902 73.4587 124.902 71.624V63.464H121.862V61.448H124.902V56.68H127.494V61.448H132.422V63.464H127.494V71.368C127.494 72.584 127.75 73.512 128.262 74.152C128.774 74.7707 129.606 75.08 130.758 75.08C131.1 75.08 131.441 75.0373 131.782 74.952C132.124 74.8667 132.433 74.7813 132.71 74.696L133.158 76.68C132.881 76.8293 132.476 76.968 131.942 77.096C131.409 77.224 130.897 77.288 130.406 77.288Z" fill="#EEEEEE"/>
<rect x="2.5" y="2.5" width="176" height="128" rx="17.5" stroke="#343434" stroke-width="5"/>
<path d="M347.061 24.0607C347.646 23.4749 347.646 22.5251 347.061 21.9394L337.515 12.3934C336.929 11.8076 335.979 11.8076 335.393 12.3934C334.808 12.9792 334.808 13.9289 335.393 14.5147L343.879 23L335.393 31.4853C334.808 32.0711 334.808 33.0208 335.393 33.6066C335.979 34.1924 336.929 34.1924 337.515 33.6066L347.061 24.0607ZM192 24.5L346 24.5L346 21.5L192 21.5L192 24.5Z" fill="#EEEEEE"/>
<path d="M190.939 106.939C190.354 107.525 190.354 108.475 190.939 109.061L200.485 118.607C201.071 119.192 202.021 119.192 202.607 118.607C203.192 118.021 203.192 117.071 202.607 116.485L194.121 108L202.607 99.5147C203.192 98.9289 203.192 97.9792 202.607 97.3934C202.021 96.8076 201.071 96.8076 200.485 97.3934L190.939 106.939ZM346 106.5L192 106.5L192 109.5L346 109.5L346 106.5Z" fill="#EEEEEE"/>
</svg>
