<svg width="895" height="133" viewBox="0 0 895 133" fill="none" xmlns="http://www.w3.org/2000/svg">
<path d="M60.6221 77.288C58.4035 77.288 56.5048 76.8187 54.9261 75.88C53.3475 74.9413 52.1315 73.608 51.2781 71.88C50.4461 70.152 50.0301 68.0933 50.0301 65.704C50.0301 63.336 50.4461 61.288 51.2781 59.56C52.1315 57.832 53.3475 56.4987 54.9261 55.56C56.5048 54.6213 58.4035 54.152 60.6221 54.152C62.1795 54.152 63.6088 54.3973 64.9101 54.888C66.2328 55.3787 67.3528 56.0933 68.2701 57.032L67.2461 59.176C66.2648 58.2587 65.2408 57.5973 64.1741 57.192C63.1288 56.7653 61.9661 56.552 60.6861 56.552C58.1475 56.552 56.2061 57.352 54.8621 58.952C53.5181 60.552 52.8461 62.8027 52.8461 65.704C52.8461 68.6267 53.5181 70.888 54.8621 72.488C56.2061 74.088 58.1475 74.888 60.6861 74.888C61.9661 74.888 63.1288 74.6853 64.1741 74.28C65.2408 73.8533 66.2648 73.1813 67.2461 72.264L68.2701 74.408C67.3528 75.3253 66.2328 76.04 64.9101 76.552C63.6088 77.0427 62.1795 77.288 60.6221 77.288ZM76.8094 77.288C75.2307 77.288 74.036 76.8293 73.2254 75.912C72.436 74.9733 72.0414 73.6187 72.0414 71.848V54.44H74.6334V71.656C74.6334 73.9387 75.54 75.08 77.3534 75.08C77.8867 75.08 78.3667 75.016 78.7934 74.888L78.7294 77.064C78.068 77.2133 77.428 77.288 76.8094 77.288ZM81.1901 57.576V54.664H84.3901V57.576H81.1901ZM81.5101 77V61.448H84.1021V77H81.5101ZM95.9556 77.288C93.5023 77.288 91.561 76.5733 90.1316 75.144C88.7023 73.6933 87.9876 71.7307 87.9876 69.256C87.9876 67.656 88.3076 66.248 88.9476 65.032C89.5876 63.7947 90.4623 62.8453 91.5716 62.184C92.7023 61.5013 94.0036 61.16 95.4756 61.16C97.5876 61.16 99.241 61.8427 100.436 63.208C101.63 64.552 102.228 66.408 102.228 68.776V69.768H90.5156C90.601 71.5387 91.113 72.8933 92.0516 73.832C92.9903 74.7493 94.2916 75.208 95.9556 75.208C96.8943 75.208 97.7903 75.0693 98.6436 74.792C99.497 74.4933 100.308 74.0133 101.076 73.352L101.972 75.176C101.268 75.8373 100.372 76.36 99.2836 76.744C98.1956 77.1067 97.0863 77.288 95.9556 77.288ZM95.5396 63.08C94.0676 63.08 92.905 63.5387 92.0516 64.456C91.1983 65.3733 90.697 66.5787 90.5476 68.072H99.9876C99.9236 66.4933 99.5076 65.2667 98.7396 64.392C97.993 63.5173 96.9263 63.08 95.5396 63.08ZM105.979 77V61.448H108.507V64.104C109.019 63.1227 109.744 62.3867 110.683 61.896C111.622 61.4053 112.678 61.16 113.851 61.16C117.542 61.16 119.387 63.208 119.387 67.304V77H116.795V67.464C116.795 66.0133 116.507 64.9573 115.931 64.296C115.376 63.6133 114.48 63.272 113.243 63.272C111.814 63.272 110.672 63.72 109.819 64.616C108.987 65.4907 108.571 66.664 108.571 68.136V77H105.979ZM130.406 77.288C128.572 77.288 127.196 76.808 126.278 75.848C125.361 74.8667 124.902 73.4587 124.902 71.624V63.464H121.862V61.448H124.902V56.68H127.494V61.448H132.422V63.464H127.494V71.368C127.494 72.584 127.75 73.512 128.262 74.152C128.774 74.7707 129.606 75.08 130.758 75.08C131.1 75.08 131.441 75.0373 131.782 74.952C132.124 74.8667 132.433 74.7813 132.71 74.696L133.158 76.68C132.881 76.8293 132.476 76.968 131.942 77.096C131.409 77.224 130.897 77.288 130.406 77.288Z" fill="#EEEEEE"/>
<rect x="2.5" y="2.5" width="176" height="128" rx="17.5" stroke="#343434" stroke-width="5"/>
<path d="M409.487 77V54.44H418.415C420.847 54.44 422.703 55.0267 423.983 56.2C425.284 57.3733 425.935 59.048 425.935 61.224C425.935 63.3787 425.284 65.0533 423.983 66.248C422.703 67.4213 420.847 68.008 418.415 68.008H412.111V77H409.487ZM412.111 65.8H418.095C421.594 65.8 423.343 64.2747 423.343 61.224C423.343 58.152 421.594 56.616 418.095 56.616H412.111V65.8ZM429.073 77V61.448H431.601V64.232C432.433 62.3547 434.139 61.32 436.721 61.128L437.649 61.032L437.841 63.272L436.209 63.464C434.737 63.592 433.617 64.0613 432.849 64.872C432.081 65.6613 431.697 66.7493 431.697 68.136V77H429.073ZM446.818 77.288C445.303 77.288 443.991 76.9573 442.882 76.296C441.773 75.6347 440.909 74.7067 440.29 73.512C439.693 72.296 439.394 70.8667 439.394 69.224C439.394 67.5813 439.693 66.1627 440.29 64.968C440.909 63.752 441.773 62.8133 442.882 62.152C443.991 61.4907 445.303 61.16 446.818 61.16C448.311 61.16 449.613 61.4907 450.722 62.152C451.853 62.8133 452.717 63.752 453.314 64.968C453.933 66.1627 454.242 67.5813 454.242 69.224C454.242 70.8667 453.933 72.296 453.314 73.512C452.717 74.7067 451.853 75.6347 450.722 76.296C449.613 76.9573 448.311 77.288 446.818 77.288ZM446.818 75.208C448.269 75.208 449.431 74.696 450.306 73.672C451.181 72.6267 451.618 71.144 451.618 69.224C451.618 67.2827 451.181 65.8 450.306 64.776C449.431 63.752 448.269 63.24 446.818 63.24C445.346 63.24 444.173 63.752 443.298 64.776C442.445 65.8 442.018 67.2827 442.018 69.224C442.018 71.144 442.445 72.6267 443.298 73.672C444.173 74.696 445.346 75.208 446.818 75.208ZM455.807 77L462.271 68.968L456.191 61.448H459.263L463.775 67.176L468.319 61.448H471.359L465.279 68.968L471.743 77H468.671L463.743 70.824L458.879 77H455.807ZM476.083 82.76L478.739 76.744L472.179 61.448H474.995L480.147 74.056L485.331 61.448H488.051L478.803 82.76H476.083Z" fill="#EEEEEE"/>
<rect x="359.5" y="2.5" width="176" height="128" rx="17.5" stroke="#343434" stroke-width="5"/>
<path d="M704.061 24.0607C704.646 23.4749 704.646 22.5251 704.061 21.9394L694.515 12.3934C693.929 11.8076 692.979 11.8076 692.393 12.3934C691.808 12.9792 691.808 13.9289 692.393 14.5147L700.879 23L692.393 31.4853C691.808 32.0711 691.808 33.0208 692.393 33.6066C692.979 34.1924 693.929 34.1924 694.515 33.6066L704.061 24.0607ZM549 24.5L703 24.5L703 21.5L549 21.5L549 24.5Z" fill="#EEEEEE"/>
<path d="M547.939 106.939C547.354 107.525 547.354 108.475 547.939 109.061L557.485 118.607C558.071 119.192 559.021 119.192 559.607 118.607C560.192 118.021 560.192 117.071 559.607 116.485L551.121 108L559.607 99.5147C560.192 98.9289 560.192 97.9792 559.607 97.3934C559.021 96.8076 558.071 96.8076 557.485 97.3934L547.939 106.939ZM703 106.5L549 106.5L549 109.5L703 109.5L703 106.5Z" fill="#EEEEEE"/>
<path d="M347.061 24.0607C347.646 23.4749 347.646 22.5251 347.061 21.9394L337.515 12.3934C336.929 11.8076 335.979 11.8076 335.393 12.3934C334.808 12.9792 334.808 13.9289 335.393 14.5147L343.879 23L335.393 31.4853C334.808 32.0711 334.808 33.0208 335.393 33.6066C335.979 34.1924 336.929 34.1924 337.515 33.6066L347.061 24.0607ZM192 24.5L346 24.5L346 21.5L192 21.5L192 24.5Z" fill="#EEEEEE"/>
<path d="M190.939 106.939C190.354 107.525 190.354 108.475 190.939 109.061L200.485 118.607C201.071 119.192 202.021 119.192 202.607 118.607C203.192 118.021 203.192 117.071 202.607 116.485L194.121 108L202.607 99.5147C203.192 98.9289 203.192 97.9792 202.607 97.3934C202.021 96.8076 201.071 96.8076 200.485 97.3934L190.939 106.939ZM346 106.5L192 106.5L192 109.5L346 109.5L346 106.5Z" fill="#EEEEEE"/>
<path d="M767.627 77.288C765.856 77.288 764.256 77.064 762.827 76.616C761.398 76.1467 760.16 75.4747 759.115 74.6L760.043 72.488C761.131 73.32 762.272 73.9387 763.467 74.344C764.662 74.7493 766.048 74.952 767.627 74.952C769.547 74.952 770.966 74.6 771.883 73.896C772.822 73.1707 773.291 72.2213 773.291 71.048C773.291 70.1093 772.95 69.3627 772.267 68.808C771.606 68.2533 770.486 67.816 768.907 67.496L765.579 66.824C763.574 66.3973 762.07 65.704 761.067 64.744C760.086 63.7627 759.595 62.4613 759.595 60.84C759.595 59.496 759.936 58.3227 760.619 57.32C761.323 56.3173 762.294 55.5387 763.531 54.984C764.768 54.4293 766.198 54.152 767.819 54.152C769.334 54.152 770.742 54.3973 772.043 54.888C773.344 55.3573 774.443 56.04 775.339 56.936L774.411 58.984C773.451 58.1093 772.438 57.48 771.371 57.096C770.304 56.6907 769.11 56.488 767.787 56.488C766.102 56.488 764.758 56.8827 763.755 57.672C762.752 58.44 762.251 59.464 762.251 60.744C762.251 61.768 762.56 62.5787 763.179 63.176C763.819 63.7733 764.854 64.2107 766.283 64.488L769.611 65.192C771.766 65.64 773.355 66.3227 774.379 67.24C775.424 68.136 775.947 69.3627 775.947 70.92C775.947 72.1787 775.606 73.288 774.923 74.248C774.262 75.208 773.302 75.9547 772.043 76.488C770.806 77.0213 769.334 77.288 767.627 77.288ZM786.674 77.288C784.221 77.288 782.28 76.5733 780.85 75.144C779.421 73.6933 778.706 71.7307 778.706 69.256C778.706 67.656 779.026 66.248 779.666 65.032C780.306 63.7947 781.181 62.8453 782.29 62.184C783.421 61.5013 784.722 61.16 786.194 61.16C788.306 61.16 789.96 61.8427 791.154 63.208C792.349 64.552 792.946 66.408 792.946 68.776V69.768H781.234C781.32 71.5387 781.832 72.8933 782.77 73.832C783.709 74.7493 785.01 75.208 786.674 75.208C787.613 75.208 788.509 75.0693 789.362 74.792C790.216 74.4933 791.026 74.0133 791.794 73.352L792.69 75.176C791.986 75.8373 791.09 76.36 790.002 76.744C788.914 77.1067 787.805 77.288 786.674 77.288ZM786.258 63.08C784.786 63.08 783.624 63.5387 782.77 64.456C781.917 65.3733 781.416 66.5787 781.266 68.072H790.706C790.642 66.4933 790.226 65.2667 789.458 64.392C788.712 63.5173 787.645 63.08 786.258 63.08ZM796.698 77V61.448H799.226V64.232C800.058 62.3547 801.764 61.32 804.346 61.128L805.274 61.032L805.466 63.272L803.834 63.464C802.362 63.592 801.242 64.0613 800.474 64.872C799.706 65.6613 799.322 66.7493 799.322 68.136V77H796.698ZM813.711 77L807.023 61.448H809.839L814.991 74.056L820.207 61.448H822.863L816.143 77H813.711ZM832.393 77.288C829.94 77.288 827.998 76.5733 826.569 75.144C825.14 73.6933 824.425 71.7307 824.425 69.256C824.425 67.656 824.745 66.248 825.385 65.032C826.025 63.7947 826.9 62.8453 828.009 62.184C829.14 61.5013 830.441 61.16 831.913 61.16C834.025 61.16 835.678 61.8427 836.873 63.208C838.068 64.552 838.665 66.408 838.665 68.776V69.768H826.953C827.038 71.5387 827.55 72.8933 828.489 73.832C829.428 74.7493 830.729 75.208 832.393 75.208C833.332 75.208 834.228 75.0693 835.081 74.792C835.934 74.4933 836.745 74.0133 837.513 73.352L838.409 75.176C837.705 75.8373 836.809 76.36 835.721 76.744C834.633 77.1067 833.524 77.288 832.393 77.288ZM831.977 63.08C830.505 63.08 829.342 63.5387 828.489 64.456C827.636 65.3733 827.134 66.5787 826.985 68.072H836.425C836.361 66.4933 835.945 65.2667 835.177 64.392C834.43 63.5173 833.364 63.08 831.977 63.08ZM842.416 77V61.448H844.944V64.232C845.776 62.3547 847.483 61.32 850.064 61.128L850.992 61.032L851.184 63.272L849.552 63.464C848.08 63.592 846.96 64.0613 846.192 64.872C845.424 65.6613 845.04 66.7493 845.04 68.136V77H842.416Z" fill="#EEEEEE"/>
<rect x="716.5" y="2.5" width="176" height="128" rx="17.5" stroke="#343434" stroke-width="5"/>
</svg>
